#N canvas 120 120 1080 720 10;
#X text 36 36 fractured-meridian riff agent;
#X text 36 64 Riff motifs, lead responses, and phrase-level variation.;
#X text 36 92 TODO: wire abstractions and role I/O here.;
