#N canvas 120 120 1080 720 10;
#X text 36 36 fractured-meridian texture network;
#X text 36 64 Metal FM, granular dust, and transition risers.;
#X text 36 92 TODO: wire abstractions and role I/O here.;
