#N canvas 120 120 1080 720 10;
#X text 36 36 fractured-meridian harmonic engine;
#X text 36 64 m11 / 13 / #11 voicing lane and tension control.;
#X text 36 92 TODO: wire abstractions and role I/O here.;
